<svg width="24" height="24" viewBox="0 0 24 24" fill="none" xmlns="http://www.w3.org/2000/svg">
<path d="M11.8963 5.51409L12.3823 4.67409C12.6823 4.14909 13.3513 3.97209 13.8763 4.27209C14.4013 4.57209 14.5783 5.24109 14.2783 5.76609L9.59529 13.8721H12.9823C14.0803 13.8721 14.6953 15.1621 14.2183 16.0561H4.28829C3.68229 16.0561 3.19629 15.5701 3.19629 14.9641C3.19629 14.3581 3.68229 13.8721 4.28829 13.8721H7.07229L10.6363 7.69509L9.52329 5.76309C9.22329 5.23809 9.40029 4.57509 9.92529 4.26909C10.4503 3.96909 11.1133 4.14609 11.4193 4.67109L11.8963 5.51409ZM7.68429 17.1811L6.63429 19.0021C6.33429 19.5271 5.66529 19.7041 5.14029 19.4041C4.61529 19.1041 4.43829 18.4351 4.73829 17.9101L5.51829 16.5601C6.40029 16.2871 7.11729 16.4971 7.68429 17.1811ZM16.7263 13.8781H19.5673C20.1733 13.8781 20.6593 14.3641 20.6593 14.9701C20.6593 15.5761 20.1733 16.0621 19.5673 16.0621H17.9893L19.0543 17.9101C19.3543 18.4351 19.1773 19.0981 18.6523 19.4041C18.1273 19.7041 17.4643 19.5271 17.1583 19.0021C15.3643 15.8911 14.0173 13.5631 13.1233 12.0121C12.2083 10.4341 12.8623 8.85009 13.5073 8.31309C14.2243 9.54309 15.2953 11.4001 16.7263 13.8781Z" fill="white"/>
</svg>
