<svg width="24" height="24" viewBox="0 0 24 24" fill="none" xmlns="http://www.w3.org/2000/svg">
<path d="M20.7747 16.2481C21.4009 14.9555 21.7338 13.5405 21.7494 12.1042C21.7651 10.6679 21.4631 9.24597 20.8652 7.94C20.2672 6.63403 19.3881 5.47634 18.2906 4.54973C17.1931 3.62312 15.9044 2.95049 14.5167 2.57996C14.4998 2.57469 14.4827 2.57016 14.4655 2.56609C12.9431 2.16852 11.347 2.14564 9.81385 2.49943C8.28066 2.85322 6.85599 3.57314 5.66171 4.5976C5.61602 4.62931 5.57403 4.66604 5.53652 4.7071C4.05501 6.01831 3.00768 7.74938 2.53375 9.67019C2.05982 11.591 2.18173 13.6106 2.88328 15.4604C3.58483 17.3103 4.83279 18.9028 6.46127 20.0263C8.08974 21.1497 10.0216 21.751 12 21.75C12.069 21.75 12.1377 21.7488 12.2064 21.7474C12.2081 21.7474 12.2097 21.7476 12.2114 21.7476C12.2147 21.7476 12.2179 21.7473 12.2211 21.7472C13.9918 21.7054 15.7178 21.1827 17.2141 20.235C18.7105 19.2873 19.9208 17.9503 20.7154 16.3673L20.7167 16.3653C20.7394 16.328 20.7588 16.2888 20.7747 16.2481V16.2481ZM20.25 12C20.2509 12.9829 20.0752 13.9579 19.7314 14.8787L15.3814 12.2033C15.2031 12.0933 15.0037 12.0222 14.7961 11.9945L12.6568 11.7061C12.3818 11.6705 12.1023 11.7112 11.849 11.8239C11.5956 11.9366 11.3781 12.1169 11.2204 12.345H10.4195L10.0628 11.6081C9.96346 11.4028 9.81857 11.2228 9.63919 11.0819C9.45981 10.941 9.25067 10.8429 9.02766 10.7949L8.41214 10.6627L8.64815 10.1024C8.70544 9.96639 8.80158 9.85031 8.92452 9.76868C9.04747 9.68706 9.19176 9.64353 9.33934 9.64353H10.8426C11.0962 9.6434 11.3456 9.57908 11.5677 9.45658L12.7155 8.82276C12.8165 8.76695 12.9107 8.69971 12.9964 8.62235L15.5192 6.34067C15.7367 6.14548 15.892 5.8907 15.9659 5.60797C16.0398 5.32524 16.029 5.02704 15.9349 4.7504C17.2395 5.45921 18.3288 6.50667 19.0882 7.78249C19.8476 9.05831 20.249 10.5153 20.25 12V12ZM3.75 12C3.74854 10.7079 4.05245 9.43374 4.63696 8.28141L5.61415 10.8896C5.70188 11.1253 5.84773 11.3351 6.03819 11.4995C6.22864 11.6638 6.45752 11.7774 6.70358 11.8296L7.2204 11.9407L7.22466 11.9416L8.35469 12.1845C8.46616 12.2085 8.57071 12.2576 8.66037 12.328C8.75003 12.3984 8.82246 12.4884 8.87214 12.591L9.06944 12.9986C9.19224 13.2522 9.38402 13.4662 9.62281 13.6159C9.8616 13.7656 10.1377 13.845 10.4196 13.845H10.5235L9.8021 15.4638C9.68245 15.7318 9.64413 16.029 9.6919 16.3186C9.73967 16.6082 9.87142 16.8774 10.0708 17.0927L11.5755 18.7202C11.6554 18.8067 11.7138 18.9107 11.7461 19.0239C11.7783 19.1371 11.7835 19.2563 11.7611 19.3718L11.5932 20.2399C9.47907 20.133 7.48661 19.2186 6.02712 17.6853C4.56763 16.152 3.75251 14.1169 3.75 12V12Z" fill="white"/>
</svg>
