<svg width="120" height="120" viewBox="0 0 120 120" fill="none" xmlns="http://www.w3.org/2000/svg">
<rect width="120" height="120" rx="60" fill="black"/>
<g clip-path="url(#clip0_711_1861)">
<path fill-rule="evenodd" clip-rule="evenodd" d="M60.0297 24.7346C40.1819 24.7346 24.137 40.8978 24.137 60.894C24.137 76.878 34.4175 90.4081 48.6794 95.1968C50.4625 95.5568 51.1157 94.4188 51.1157 93.4615C51.1157 92.6232 51.0569 89.7498 51.0569 86.7559C41.0724 88.9115 38.9932 82.4455 38.9932 82.4455C37.3886 78.2548 35.0112 77.1777 35.0112 77.1777C31.7432 74.9626 35.2492 74.9626 35.2492 74.9626C38.8742 75.2021 40.7763 78.6743 40.7763 78.6743C43.9847 84.1816 49.1548 82.6255 51.2347 81.6675C51.5315 79.3326 52.4829 77.7163 53.4931 76.8185C45.5298 75.9802 37.1513 72.8673 37.1513 58.9779C37.1513 55.0267 38.5766 51.7941 40.8351 49.2799C40.4788 48.3822 39.2305 44.6697 41.1921 39.701C41.1921 39.701 44.2228 38.743 51.0561 43.4127C53.9818 42.6212 56.9989 42.2185 60.0297 42.2151C63.0603 42.2151 66.1497 42.6346 69.0025 43.4127C75.8366 38.743 78.8673 39.701 78.8673 39.701C80.8289 44.6697 79.5799 48.3822 79.2236 49.2799C81.5415 51.7941 82.9081 55.0267 82.9081 58.9779C82.9081 72.8673 74.5296 75.9199 66.5068 76.8185C67.8145 77.9558 68.943 80.1106 68.943 83.5233C68.943 88.3723 68.8842 92.2639 68.8842 93.4608C68.8842 94.4188 69.5381 95.5568 71.3205 95.1976C85.5824 90.4074 95.8629 76.878 95.8629 60.894C95.9217 40.8978 79.8179 24.7346 60.0297 24.7346Z" fill="white"/>
</g>
<defs>
<clipPath id="clip0_711_1861">
<rect width="72" height="72" fill="white" transform="translate(24 24)"/>
</clipPath>
</defs>
</svg>
