<svg width="40" height="40" viewBox="0 0 40 40" fill="none" xmlns="http://www.w3.org/2000/svg">
<rect width="40" height="40" rx="20" fill="black"/>
<g clip-path="url(#clip0_708_2088)">
<path fill-rule="evenodd" clip-rule="evenodd" d="M20.0099 8.24512C13.394 8.24512 8.04565 13.6329 8.04565 20.2983C8.04565 25.6263 11.4725 30.1363 16.2265 31.7325C16.8208 31.8525 17.0386 31.4732 17.0386 31.1541C17.0386 30.8747 17.019 29.9169 17.019 28.9189C13.6908 29.6374 12.9977 27.4821 12.9977 27.4821C12.4629 26.0852 11.6704 25.7262 11.6704 25.7262C10.5811 24.9878 11.7497 24.9878 11.7497 24.9878C12.9581 25.0676 13.5921 26.225 13.5921 26.225C14.6616 28.0608 16.3849 27.5421 17.0782 27.2227C17.1772 26.4445 17.4943 25.9057 17.831 25.6064C15.1766 25.327 12.3838 24.2894 12.3838 19.6596C12.3838 18.3425 12.8589 17.265 13.6117 16.4269C13.4929 16.1276 13.0768 14.8902 13.7307 13.2339C13.7307 13.2339 14.7409 12.9146 17.0187 14.4712C17.9939 14.2073 18.9996 14.0731 20.0099 14.072C21.0201 14.072 22.0499 14.2118 23.0008 14.4712C25.2789 12.9146 26.2891 13.2339 26.2891 13.2339C26.943 14.8902 26.5266 16.1276 26.4079 16.4269C27.1805 17.265 27.636 18.3425 27.636 19.6596C27.636 24.2894 24.8432 25.3069 22.1689 25.6064C22.6048 25.9855 22.981 26.7038 22.981 27.8414C22.981 29.4577 22.9614 30.7549 22.9614 31.1539C22.9614 31.4732 23.1794 31.8525 23.7735 31.7328C28.5275 30.1361 31.9543 25.6263 31.9543 20.2983C31.9739 13.6329 26.606 8.24512 20.0099 8.24512Z" fill="white"/>
</g>
<defs>
<clipPath id="clip0_708_2088">
<rect width="24" height="24" fill="white" transform="translate(8 8)"/>
</clipPath>
</defs>
</svg>
