<svg width="20" height="20" viewBox="0 0 20 20" fill="none" xmlns="http://www.w3.org/2000/svg">
<path d="M10 15.3125C12.934 15.3125 15.3125 12.934 15.3125 10C15.3125 7.06599 12.934 4.6875 10 4.6875C7.06599 4.6875 4.6875 7.06599 4.6875 10C4.6875 12.934 7.06599 15.3125 10 15.3125Z" fill="#FB9905"/>
<path d="M10 3.4375C10.1658 3.4375 10.3247 3.37165 10.4419 3.25444C10.5591 3.13723 10.625 2.97826 10.625 2.8125V1.25C10.625 1.08424 10.5592 0.925268 10.4419 0.808058C10.3247 0.690848 10.1658 0.625 10 0.625C9.83424 0.625 9.67527 0.690848 9.55806 0.808058C9.44085 0.925268 9.375 1.08424 9.375 1.25V2.8125C9.375 2.97826 9.44085 3.13723 9.55806 3.25444C9.67527 3.37165 9.83424 3.4375 10 3.4375Z" fill="#FB9905"/>
<path d="M4.4758 5.35961C4.53379 5.41787 4.6027 5.46412 4.67859 5.49571C4.75447 5.52731 4.83585 5.54362 4.91805 5.54372C5.00025 5.54382 5.08166 5.5277 5.15762 5.49629C5.23358 5.46487 5.3026 5.41879 5.36072 5.36066C5.41885 5.30254 5.46494 5.23352 5.49635 5.15756C5.52776 5.0816 5.54388 5.00018 5.54378 4.91798C5.54368 4.83578 5.52737 4.75441 5.49577 4.67852C5.46418 4.60264 5.41793 4.53373 5.35967 4.47574L4.25482 3.37089C4.1968 3.3128 4.1279 3.2667 4.05205 3.23525C3.97621 3.20379 3.89491 3.18759 3.81281 3.18756C3.7307 3.18754 3.64939 3.20369 3.57353 3.2351C3.49767 3.26651 3.42874 3.31256 3.37068 3.37062C3.31262 3.42867 3.26657 3.4976 3.23516 3.57347C3.20375 3.64933 3.1876 3.73064 3.18762 3.81274C3.18765 3.89485 3.20385 3.97615 3.23531 4.05199C3.26677 4.12784 3.31286 4.19674 3.37095 4.25476L4.4758 5.35961Z" fill="#FB9905"/>
<path d="M3.4375 10C3.4375 9.83424 3.37165 9.67527 3.25444 9.55806C3.13723 9.44085 2.97826 9.375 2.8125 9.375H1.25C1.08424 9.375 0.925268 9.44085 0.808058 9.55806C0.690848 9.67527 0.625 9.83424 0.625 10C0.625 10.1658 0.690848 10.3247 0.808058 10.4419C0.925268 10.5592 1.08424 10.625 1.25 10.625H2.8125C2.97826 10.625 3.13723 10.5591 3.25444 10.4419C3.37165 10.3247 3.4375 10.1658 3.4375 10V10Z" fill="#FB9905"/>
<path d="M4.4758 14.6404L3.37095 15.7453C3.31286 15.8033 3.26677 15.8722 3.23531 15.948C3.20385 16.0239 3.18765 16.1052 3.18762 16.1873C3.1876 16.2694 3.20375 16.3507 3.23516 16.4265C3.26657 16.5024 3.31262 16.5713 3.37068 16.6294C3.42874 16.6875 3.49767 16.7335 3.57353 16.7649C3.64939 16.7963 3.7307 16.8125 3.81281 16.8125C3.89491 16.8124 3.97621 16.7962 4.05205 16.7648C4.1279 16.7333 4.1968 16.6872 4.25482 16.6291L5.35967 15.5243C5.41793 15.4663 5.46418 15.3974 5.49577 15.3215C5.52737 15.2456 5.54368 15.1642 5.54378 15.082C5.54388 14.9998 5.52776 14.9184 5.49635 14.8425C5.46494 14.7665 5.41885 14.6975 5.36072 14.6394C5.3026 14.5812 5.23358 14.5351 5.15762 14.5037C5.08166 14.4723 5.00025 14.4562 4.91805 14.4563C4.83585 14.4564 4.75447 14.4727 4.67859 14.5043C4.6027 14.5359 4.53379 14.5821 4.4758 14.6404V14.6404Z" fill="#FB9905"/>
<path d="M10 16.5625C9.83424 16.5625 9.67527 16.6284 9.55806 16.7456C9.44085 16.8628 9.375 17.0217 9.375 17.1875V18.75C9.375 18.9158 9.44085 19.0747 9.55806 19.1919C9.67527 19.3092 9.83424 19.375 10 19.375C10.1658 19.375 10.3247 19.3092 10.4419 19.1919C10.5592 19.0747 10.625 18.9158 10.625 18.75V17.1875C10.625 17.0217 10.5591 16.8628 10.4419 16.7456C10.3247 16.6284 10.1658 16.5625 10 16.5625V16.5625Z" fill="#FB9905"/>
<path d="M15.5243 14.6404C15.4663 14.5821 15.3974 14.5359 15.3215 14.5043C15.2456 14.4727 15.1642 14.4564 15.082 14.4563C14.9998 14.4562 14.9184 14.4723 14.8425 14.5037C14.7665 14.5351 14.6975 14.5812 14.6394 14.6394C14.5812 14.6975 14.5351 14.7665 14.5037 14.8425C14.4723 14.9184 14.4562 14.9998 14.4563 15.082C14.4564 15.1642 14.4727 15.2456 14.5043 15.3215C14.5359 15.3974 14.5821 15.4663 14.6404 15.5243L15.7453 16.6291C15.8033 16.6872 15.8722 16.7333 15.948 16.7648C16.0239 16.7962 16.1052 16.8124 16.1873 16.8125C16.2694 16.8125 16.3507 16.7963 16.4266 16.7649C16.5024 16.7335 16.5713 16.6875 16.6294 16.6294C16.6875 16.5713 16.7335 16.5024 16.7649 16.4265C16.7963 16.3507 16.8125 16.2694 16.8125 16.1873C16.8124 16.1052 16.7962 16.0239 16.7648 15.948C16.7333 15.8722 16.6872 15.8033 16.6291 15.7453L15.5243 14.6404Z" fill="#FB9905"/>
<path d="M18.75 9.375H17.1875C17.0217 9.375 16.8628 9.44085 16.7456 9.55806C16.6283 9.67527 16.5625 9.83424 16.5625 10C16.5625 10.1658 16.6283 10.3247 16.7456 10.4419C16.8628 10.5592 17.0217 10.625 17.1875 10.625H18.75C18.9158 10.625 19.0747 10.5592 19.1919 10.4419C19.3092 10.3247 19.375 10.1658 19.375 10C19.375 9.83424 19.3092 9.67527 19.1919 9.55806C19.0747 9.44085 18.9158 9.375 18.75 9.375Z" fill="#FB9905"/>
<path d="M15.0823 5.54268C15.1644 5.54278 15.2457 5.52666 15.3215 5.49524C15.3974 5.46383 15.4662 5.41773 15.5242 5.35961L16.6291 4.25476C16.6872 4.19674 16.7333 4.12784 16.7647 4.05199C16.7962 3.97615 16.8124 3.89485 16.8124 3.81274C16.8124 3.73064 16.7963 3.64933 16.7649 3.57347C16.7335 3.4976 16.6874 3.42867 16.6293 3.37062C16.5713 3.31256 16.5024 3.26651 16.4265 3.2351C16.3506 3.20369 16.2693 3.18754 16.1872 3.18756C16.1051 3.18759 16.0238 3.20379 15.948 3.23525C15.8721 3.2667 15.8032 3.3128 15.7452 3.37089L14.6404 4.47574C14.5529 4.56315 14.4934 4.67451 14.4693 4.79575C14.4452 4.91699 14.4575 5.04266 14.5048 5.15686C14.5522 5.27107 14.6323 5.36868 14.735 5.43735C14.8378 5.50603 14.9587 5.54268 15.0823 5.54268H15.0823Z" fill="#FB9905"/>
</svg>
