<svg width="80" height="12" viewBox="0 0 80 12" fill="none" xmlns="http://www.w3.org/2000/svg">
<path d="M3.18 11.18C5.655 11.18 6.96 9.905 6.96 7.31V0.499999H0.855V2.45H4.545V7.445C4.545 8.6 4.035 9.185 3.06 9.185C2.31 9.185 1.68 8.795 1.11 8.03L-0.24 9.65C0.525 10.64 1.77 11.18 3.18 11.18ZM11.7002 2.81C10.4102 2.81 9.10523 3.155 8.22023 3.785L9.06023 5.42C9.64523 4.955 10.5302 4.67 11.3852 4.67C12.6452 4.67 13.2452 5.255 13.2452 6.26H11.3852C8.92523 6.26 7.92023 7.25 7.92023 8.675C7.92023 10.07 9.04523 11.12 10.9352 11.12C12.1202 11.12 12.9602 10.73 13.3952 9.995V11H15.5852V6.395C15.5852 3.95 14.1602 2.81 11.7002 2.81ZM11.5202 9.545C10.6952 9.545 10.2002 9.155 10.2002 8.57C10.2002 8.03 10.5452 7.625 11.6402 7.625H13.2452V8.45C12.9752 9.185 12.3002 9.545 11.5202 9.545ZM19.668 11.12C22.083 11.12 23.478 10.055 23.478 8.555C23.478 5.375 18.603 6.71 18.603 5.33C18.603 4.91 19.053 4.58 20.103 4.58C20.838 4.58 21.633 4.73 22.428 5.18L23.208 3.515C22.443 3.065 21.213 2.81 20.103 2.81C17.748 2.81 16.368 3.89 16.368 5.42C16.368 8.645 21.243 7.295 21.243 8.615C21.243 9.065 20.838 9.35 19.758 9.35C18.768 9.35 17.673 9.035 16.953 8.57L16.173 10.25C16.923 10.745 18.303 11.12 19.668 11.12ZM28.0118 11.12C30.5768 11.12 32.4368 9.395 32.4368 6.965C32.4368 4.535 30.5768 2.81 28.0118 2.81C25.4468 2.81 23.5718 4.535 23.5718 6.965C23.5718 9.395 25.4468 11.12 28.0118 11.12ZM28.0118 9.2C26.8418 9.2 25.9418 8.36 25.9418 6.965C25.9418 5.57 26.8418 4.73 28.0118 4.73C29.1818 4.73 30.0668 5.57 30.0668 6.965C30.0668 8.36 29.1818 9.2 28.0118 9.2ZM38.1559 2.81C37.0609 2.81 36.1159 3.185 35.4859 3.875V2.93H33.2509V11H35.5909V7.01C35.5909 5.525 36.4009 4.835 37.5259 4.835C38.5609 4.835 39.1609 5.435 39.1609 6.74V11H41.5009V6.38C41.5009 3.92 40.0609 2.81 38.1559 2.81ZM53.765 0.499999V6.875L48.545 0.499999H46.535V11H48.935V4.625L54.17 11H56.165V0.499999H53.765ZM60.9893 2.81C59.6993 2.81 58.3943 3.155 57.5093 3.785L58.3493 5.42C58.9343 4.955 59.8193 4.67 60.6743 4.67C61.9343 4.67 62.5343 5.255 62.5343 6.26H60.6743C58.2143 6.26 57.2093 7.25 57.2093 8.675C57.2093 10.07 58.3343 11.12 60.2243 11.12C61.4093 11.12 62.2493 10.73 62.6843 9.995V11H64.8743V6.395C64.8743 3.95 63.4493 2.81 60.9893 2.81ZM60.8093 9.545C59.9843 9.545 59.4893 9.155 59.4893 8.57C59.4893 8.03 59.8343 7.625 60.9293 7.625H62.5343V8.45C62.2643 9.185 61.5893 9.545 60.8093 9.545ZM76.5771 2.81C75.3621 2.81 74.3121 3.305 73.6671 4.13C73.0971 3.245 72.1371 2.81 71.0121 2.81C69.9771 2.81 69.0771 3.17 68.4771 3.86V2.93H66.2421V11H68.5821V6.95C68.5821 5.51 69.3171 4.835 70.3521 4.835C71.3271 4.835 71.8821 5.435 71.8821 6.74V11H74.2221V6.95C74.2221 5.51 74.9571 4.835 76.0071 4.835C76.9521 4.835 77.5371 5.435 77.5371 6.74V11H79.8771V6.38C79.8771 3.92 78.4971 2.81 76.5771 2.81Z" fill="#191F28"/>
</svg>
